<?xml version="1.0" encoding="UTF-8" standalone="no"?>
<!DOCTYPE svg PUBLIC "-//W3C//DTD SVG 1.1//EN" "http://www.w3.org/Graphics/SVG/1.1/DTD/svg11.dtd">
<!-- Created with Linearity Curve (http://linearity.io/curve) -->
<svg height="1097.2017482005176px" stroke-miterlimit="10" style="fill-rule:nonzero;clip-rule:evenodd;stroke-linecap:round;stroke-linejoin:round;" version="1.1" viewBox="0 0 753.826 1097.2" width="753.8257882108887px" xml:space="preserve" xmlns="http://www.w3.org/2000/svg" xmlns:xlink="http://www.w3.org/1999/xlink">
<defs/>
<g id="Selected-areas">
<path d="M337.677 217.237C337.677 217.237 337.985 342.601 338.163 415.416C250.919 411.44 235.274 410.005 190.422 403.888C191.973 321.35 203.308 213.203 337.677 217.237Z" fill="#99c3ad" fill-rule="nonzero" opacity="1" stroke="none"/>
<path d="M337.677 217.237C337.677 217.237 338.342 342.601 338.163 415.416C389.478 414.75 430.504 418.105 483.202 400.873C481.726 306.025 477.669 220.316 337.677 217.237Z" fill="#99c3ad" fill-rule="nonzero" opacity="1" stroke="none"/>
<path d="M338.163 415.416C338.3 471.169 338.58 584.992 338.58 584.992C338.58 584.992 264.738 586.263 245.637 579.098C242.604 590.316 242.604 590.316 242.604 590.316C242.604 590.316 209.071 558.019 203.901 508.739C195.457 501.89 188.2 496.752 184.611 476.422C181.021 456.092 173.066 422.584 181.744 413.236C190.422 403.888 186.959 409.954 190.422 403.888C228.418 409.286 281.592 413.557 338.163 415.416Z" fill="#99c3ad" fill-rule="nonzero" opacity="1" stroke="none"/>
<path d="M338.163 415.416C338.027 471.169 338.58 584.992 338.58 584.992C338.58 584.992 413.367 585.29 432.469 578.126C434.362 583.129 432.225 577.328 435.888 588.327C460.987 563.372 464.304 545.242 470.897 508.798C478.076 500.125 486.06 495.558 492.106 477.131C498.152 458.705 504.271 421.508 495.593 412.16C488.154 407.411 486.666 406.939 483.202 400.873C441.584 415.406 392.335 414.634 338.163 415.416Z" fill="#99c3ad" fill-rule="nonzero" opacity="1" stroke="none"/>
<path d="M338.58 584.992C338.58 584.992 338.763 659.823 338.919 723.404C299.953 716.207 251.39 708.579 210.994 644.039C229.645 622.145 231.246 622.26 245.637 579.098C308.667 584.921 338.58 584.992 338.58 584.992Z" fill="#99c3ad" fill-rule="nonzero" opacity="1" stroke="none"/>
<path d="M338.58 584.992C338.58 584.992 338.721 659.867 338.565 723.448C377.134 723.19 439.443 704.241 465.375 650.743C449.364 619.889 446.238 622.304 431.847 579.142C368.817 584.965 338.58 584.992 338.58 584.992Z" fill="#99c3ad" fill-rule="nonzero" opacity="1" stroke="none"/>
</g>
<g id="Layer-1">
<path d="M242.604 590.316C234.559 587.607 224.52 568.474 221.216 562.542C207.886 538.611 211.4 540.386 204.681 511.413C200.699 494.243 191.585 520.235 181.331 459.65C171.078 399.065 186.263 418.682 190.141 404.971C199.208 372.912 171.695 216.83 333.161 217.195C494.626 217.559 479.995 339.462 483.27 395.385C484.174 410.838 492.472 407.186 495.695 412.317C502.638 423.37 498.76 482.271 480.347 496.939C461.934 511.607 471.099 529.824 463.939 546.108C457.235 561.353 447.61 579.805 435.92 588.415" fill="none" opacity="1" stroke="#000000" stroke-linecap="butt" stroke-linejoin="round" stroke-width="5"/>
<path d="M251.422 547.524C251.422 547.524 243.539 622.806 210.178 644.586C216.799 666.394 274.876 720.813 336.075 723.325C396.85 725.819 458.352 677.044 465.616 649.904C465.616 649.904 430.984 593.984 426.51 550.548" fill="none" opacity="1" stroke="#000000" stroke-linecap="round" stroke-linejoin="round" stroke-width="5"/>
<path d="M337.677 217.237L338.919 723.404" fill="none" opacity="1" stroke="#000000" stroke-dasharray="5.0,0.0,0.0,5.0" stroke-linecap="round" stroke-linejoin="round" stroke-width="3"/>
<path d="M190.422 403.888C265.319 417.89 439.508 421.914 483.971 400.511" fill="none" opacity="1" stroke="#000000" stroke-dasharray="5.0,0.0,0.0,5.0" stroke-linecap="round" stroke-linejoin="round" stroke-width="3"/>
<path d="M245.635 579.098C291.618 590.068 410.954 583.534 432.621 578.619" fill="none" opacity="1" stroke="#000000" stroke-dasharray="5.0,0.0,0.0,5.0" stroke-linecap="round" stroke-linejoin="round" stroke-width="3"/>
</g>
</svg>
